<?xml version="1.0" encoding="utf-8"?>
<svg id="svg2" viewBox="0 0 500 670" xmlns="http://www.w3.org/2000/svg">
  <desc>Source: openclipart.org/detail/209545</desc>
  <defs>
    <linearGradient gradientUnits="userSpaceOnUse" x1="264.196" y1="16.798" x2="264.196" y2="652.838" id="gradient-0">
      <stop offset="0" style="stop-color: rgb(73.333% 85.882% 60.784%)"/>
      <stop offset="1" style="stop-color: rgb(38.584% 50.354% 27.466%)"/>
    </linearGradient>
  </defs>
  <ellipse style="stroke: rgb(0, 0, 0); fill-rule: nonzero; fill: url(&quot;#gradient-0&quot;);" cx="264.196" cy="334.818" rx="310.737" ry="318.02"/>
  <g transform="matrix(0.269514, 0, 0, -0.255923, -39.815689, 580.987244)" fill="#000000" stroke="none" style="">
    <path d="M984 1867 c-1 -88 -9 -137 -23 -137 -5 0 -12 11 -15 25 -7 29 -59 91 -90 107 -11 6 -38 15 -59 19 l-39 7 7 -34 c8 -45 8 -162 0 -207 -5 -28 -18 -42 -59 -71 -62 -43 -91 -91 -131 -218 -15 -48 -45 -114 -66 -148 -22 -33 -63 -123 -93 -199 l-53 -140 57 -88 c31 -48 63 -94 72 -101 8 -6 40 -17 70 -23 74 -15 112 4 177 85 86 107 100 117 191 132 92 14 136 36 165 82 26 41 35 40 35 -5 0 -60 -34 -112 -161 -248 -66 -71 -132 -151 -146 -178 -31 -63 -63 -187 -63 -249 l0 -48 567 0 566 0 -7 149 c-12 282 -52 542 -107 699 -97 276 -280 486 -506 577 l-58 24 -15 63 c-30 124 -101 208 -176 208 l-39 0 -1 -83z m107 -62 c12 -25 19 -64 19 -105 l0 -65 53 -19 c121 -42 235 -126 326 -241 165 -207 260 -537 261 -907 l0 -118 -436 0 -436 0 7 41 c15 87 57 151 210 319 126 139 140 174 110 285 l-18 65 -52 0 c-46 0 -53 -3 -63 -25 -17 -37 -63 -60 -158 -81 -83 -18 -87 -20 -142 -79 -31 -34 -69 -75 -83 -92 -30 -37 -64 -48 -115 -39 -30 6 -42 17 -75 69 -21 34 -39 67 -39 73 0 6 8 31 19 55 10 24 31 76 45 116 15 40 44 98 65 130 20 32 52 101 71 153 30 85 40 102 96 158 55 54 64 69 74 119 7 31 10 85 8 119 -3 52 -2 61 10 52 24 -20 42 -66 42 -108 l0 -40 56 0 c54 0 55 1 71 38 9 20 18 72 21 115 4 68 6 76 20 65 8 -7 23 -31 33 -53z"/>
    <path d="M1286 1461 c-3 -5 5 -16 19 -25 35 -23 128 -142 159 -203 72 -145 102 -353 93 -660 l-5 -193 70 0 71 0 -6 138 c-15 329 -74 577 -172 728 -41 62 -195 224 -213 224 -6 0 -13 -4 -16 -9z"/>
    <path d="M787 1422 c-36 -4 -65 -46 -47 -67 17 -21 77 -19 125 4 22 11 49 23 60 26 19 7 18 8 -5 17 -37 14 -101 24 -133 20z"/>
    <path d="M615 999 c-36 -11 -55 -26 -78 -59 -22 -31 -21 -36 3 -60 28 -28 36 -26 60 25 12 24 35 56 51 69 16 14 29 27 29 30 0 8 -30 6 -65 -5z"/>
  </g>
</svg>